<svg width="299.7" height="33.6" viewBox="0 0 4995 560" fill="none" xmlns="http://www.w3.org/2000/svg">
  <rect x="0" y="0" width="100" height="100" fill="#474747" />
  <rect x="115" y="0" width="100" height="100" fill="#474747" />
  <rect x="230" y="0" width="100" height="100" fill="#474747" />
  <rect x="345" y="0" width="100" height="100" fill="#474747" />
  <rect x="460" y="0" width="100" height="100" fill="#474747" />
  <rect x="230" y="115" width="100" height="100" fill="#474747" />
  <rect x="230" y="230" width="100" height="100" fill="#474747" />
  <rect x="230" y="345" width="100" height="100" fill="#474747" />
  <rect x="230" y="460" width="100" height="100" fill="#474747" />
  <rect x="595" y="0" width="100" height="100" fill="#474747" />
  <rect x="710" y="0" width="100" height="100" fill="#474747" />
  <rect x="825" y="0" width="100" height="100" fill="#474747" />
  <rect x="940" y="0" width="100" height="100" fill="#474747" />
  <rect x="595" y="115" width="100" height="100" fill="#474747" />
  <rect x="940" y="115" width="100" height="100" fill="#474747" />
  <rect x="595" y="230" width="100" height="100" fill="#474747" />
  <rect x="940" y="230" width="100" height="100" fill="#474747" />
  <rect x="595" y="345" width="100" height="100" fill="#474747" />
  <rect x="940" y="345" width="100" height="100" fill="#474747" />
  <rect x="595" y="460" width="100" height="100" fill="#474747" />
  <rect x="710" y="460" width="100" height="100" fill="#474747" />
  <rect x="825" y="460" width="100" height="100" fill="#474747" />
  <rect x="940" y="460" width="100" height="100" fill="#474747" />
  <rect x="1075" y="0" width="100" height="100" fill="#474747" />
  <rect x="1190" y="0" width="100" height="100" fill="#474747" />
  <rect x="1305" y="0" width="100" height="100" fill="#474747" />
  <rect x="1420" y="0" width="100" height="100" fill="#474747" />
  <rect x="1075" y="115" width="100" height="100" fill="#474747" />
  <rect x="1420" y="115" width="100" height="100" fill="#474747" />
  <rect x="1075" y="230" width="100" height="100" fill="#474747" />
  <rect x="1190" y="230" width="100" height="100" fill="#474747" />
  <rect x="1305" y="230" width="100" height="100" fill="#474747" />
  <rect x="1420" y="230" width="100" height="100" fill="#474747" />
  <rect x="1075" y="345" width="100" height="100" fill="#474747" />
  <rect x="1075" y="460" width="100" height="100" fill="#474747" />
  <rect x="1555" y="0" width="100" height="100" fill="#FE5000" />
  <rect x="1900" y="0" width="100" height="100" fill="#FE5000" />
  <rect x="1555" y="115" width="100" height="100" fill="#FE5000" />
  <rect x="1785" y="115" width="100" height="100" fill="#FE5000" />
  <rect x="1555" y="230" width="100" height="100" fill="#FE5000" />
  <rect x="1670" y="230" width="100" height="100" fill="#FE5000" />
  <rect x="1555" y="345" width="100" height="100" fill="#FE5000" />
  <rect x="1785" y="345" width="100" height="100" fill="#FE5000" />
  <rect x="1555" y="460" width="100" height="100" fill="#FE5000" />
  <rect x="1900" y="460" width="100" height="100" fill="#FE5000" />
  <rect x="2150" y="230" width="100" height="100" fill="#474747" />
  <rect x="2265" y="230" width="100" height="100" fill="#474747" />
  <rect x="2515" y="0" width="100" height="100" fill="#474747" />
  <rect x="2630" y="0" width="100" height="100" fill="#474747" />
  <rect x="2745" y="0" width="100" height="100" fill="#474747" />
  <rect x="2860" y="0" width="100" height="100" fill="#474747" />
  <rect x="2515" y="115" width="100" height="100" fill="#474747" />
  <rect x="2515" y="230" width="100" height="100" fill="#474747" />
  <rect x="2630" y="230" width="100" height="100" fill="#474747" />
  <rect x="2745" y="230" width="100" height="100" fill="#474747" />
  <rect x="2515" y="345" width="100" height="100" fill="#474747" />
  <rect x="2515" y="460" width="100" height="100" fill="#474747" />
  <rect x="2630" y="460" width="100" height="100" fill="#474747" />
  <rect x="2745" y="460" width="100" height="100" fill="#474747" />
  <rect x="2860" y="460" width="100" height="100" fill="#474747" />
  <rect x="2995" y="0" width="100" height="100" fill="#474747" />
  <rect x="3455" y="0" width="100" height="100" fill="#474747" />
  <rect x="2995" y="115" width="100" height="100" fill="#474747" />
  <rect x="3110" y="115" width="100" height="100" fill="#474747" />
  <rect x="3340" y="115" width="100" height="100" fill="#474747" />
  <rect x="3455" y="115" width="100" height="100" fill="#474747" />
  <rect x="2995" y="230" width="100" height="100" fill="#474747" />
  <rect x="3225" y="230" width="100" height="100" fill="#474747" />
  <rect x="3455" y="230" width="100" height="100" fill="#474747" />
  <rect x="2995" y="345" width="100" height="100" fill="#474747" />
  <rect x="3455" y="345" width="100" height="100" fill="#474747" />
  <rect x="2995" y="460" width="100" height="100" fill="#474747" />
  <rect x="3455" y="460" width="100" height="100" fill="#474747" />
  <rect x="3590" y="0" width="100" height="100" fill="#474747" />
  <rect x="3705" y="0" width="100" height="100" fill="#474747" />
  <rect x="3820" y="0" width="100" height="100" fill="#474747" />
  <rect x="3590" y="115" width="100" height="100" fill="#474747" />
  <rect x="3935" y="115" width="100" height="100" fill="#474747" />
  <rect x="3590" y="230" width="100" height="100" fill="#474747" />
  <rect x="3705" y="230" width="100" height="100" fill="#474747" />
  <rect x="3820" y="230" width="100" height="100" fill="#474747" />
  <rect x="3590" y="345" width="100" height="100" fill="#474747" />
  <rect x="3935" y="345" width="100" height="100" fill="#474747" />
  <rect x="3590" y="460" width="100" height="100" fill="#474747" />
  <rect x="3705" y="460" width="100" height="100" fill="#474747" />
  <rect x="3820" y="460" width="100" height="100" fill="#474747" />
  <rect x="4070" y="0" width="100" height="100" fill="#474747" />
  <rect x="4185" y="0" width="100" height="100" fill="#474747" />
  <rect x="4300" y="0" width="100" height="100" fill="#474747" />
  <rect x="4415" y="0" width="100" height="100" fill="#474747" />
  <rect x="4070" y="115" width="100" height="100" fill="#474747" />
  <rect x="4070" y="230" width="100" height="100" fill="#474747" />
  <rect x="4185" y="230" width="100" height="100" fill="#474747" />
  <rect x="4300" y="230" width="100" height="100" fill="#474747" />
  <rect x="4070" y="345" width="100" height="100" fill="#474747" />
  <rect x="4070" y="460" width="100" height="100" fill="#474747" />
  <rect x="4185" y="460" width="100" height="100" fill="#474747" />
  <rect x="4300" y="460" width="100" height="100" fill="#474747" />
  <rect x="4415" y="460" width="100" height="100" fill="#474747" />
  <rect x="4550" y="0" width="100" height="100" fill="#474747" />
  <rect x="4665" y="0" width="100" height="100" fill="#474747" />
  <rect x="4780" y="0" width="100" height="100" fill="#474747" />
  <rect x="4550" y="115" width="100" height="100" fill="#474747" />
  <rect x="4895" y="115" width="100" height="100" fill="#474747" />
  <rect x="4550" y="230" width="100" height="100" fill="#474747" />
  <rect x="4895" y="230" width="100" height="100" fill="#474747" />
  <rect x="4550" y="345" width="100" height="100" fill="#474747" />
  <rect x="4895" y="345" width="100" height="100" fill="#474747" />
  <rect x="4550" y="460" width="100" height="100" fill="#474747" />
  <rect x="4665" y="460" width="100" height="100" fill="#474747" />
  <rect x="4780" y="460" width="100" height="100" fill="#474747" />
</svg>
